# xmcd
#
# Track frame offsets:
#	151
#	11512
#	26837
#	40692
#	54613
#	67788
#	80025
#	98972
#	112351
#	123572
#
# Disc length: 1834 seconds
#
# Revision: 1
# Processed by: cddbd v1.5.2PL0 Copyright (c) Steve Scherf et al.
# Submitted via: audiograbber 1.83.01
#
DISCID=8607280a
DTITLE=Gerald Anderson - Anchored In Love
DYEAR=1999
DGENRE=Bluegrass
TTITLE0=Lord, It Was You
TTITLE1=Anchored In Love
TTITLE2=Can't Take It With You
TTITLE3=Just Any Day Now
TTITLE4=Going Home
TTITLE5=I'D Rather Have Jesus
TTITLE6=Driftin' Too Far From The Shore
TTITLE7=I Am A Pilgrim
TTITLE8=Softly And Tenderly
TTITLE9=End Of The Road
EXTD=Produced by Carson Cooper\nEngineered by Wesley Easter\nMixed by Wesley Ea
EXTD=ster and Gerald Anderson\nMastered by Derek Easter\nPhotography by A. W. H
EXTD=auslohner\n\nRecorded at Eastwood Studio, Cana, Virginia.\n\nWith Guests:
EXTD=\nButch Barker\nCarson Cooper\nBrandon Davis\nScott Freeman\nFandy Greer\n
EXTD=Wayne Henderson\nRandy Pasley\nKaty Taylor\nTony Testerman
EXTT0=
EXTT1=
EXTT2=
EXTT3=
EXTT4=
EXTT5=
EXTT6=
EXTT7=
EXTT8=
EXTT9=
PLAYORDER=
